<?xml version="1.0" encoding="utf-8"?>
<!-- Generator: Adobe Illustrator 28.0.0, SVG Export Plug-In . SVG Version: 6.00 Build 0)  -->
<svg version="1.1" id="Layer_1" xmlns="http://www.w3.org/2000/svg" xmlns:xlink="http://www.w3.org/1999/xlink" x="0px" y="0px"
	 viewBox="0 0 17 24.4" style="enable-background:new 0 0 17 24.4;" xml:space="preserve">
<path d="M14,12.2c1.8-1.3,2.8-3.3,2.8-5.5c0-3.7-3-6.7-6.7-6.7H0v2.5h1c2.3,0,4.2,1.9,4.2,4.2c0,2.3-1.9,4.2-4.2,4.2H0v2.5h1
	c2.3,0,4.2,1.9,4.2,4.2S3.3,21.9,1,21.9H0v2.5h10.1c3.7,0,6.7-3,6.7-6.7C16.8,15.5,15.7,13.5,14,12.2z M5.4,11.2
	C6.6,10,7.2,8.4,7.2,6.7c0-1.8-0.8-3.5-2.2-4.7h5c2.6,0,4.7,2.1,4.7,4.7c0,2-1.3,3.8-3.2,4.5H5.4z M7.2,17.7c0-1.7-0.7-3.3-1.9-4.5
	h6.2c1.9,0.6,3.2,2.5,3.2,4.5c0,2.6-2.1,4.7-4.7,4.7h-5C6.4,21.2,7.2,19.5,7.2,17.7z"/>
</svg>
