<svg width="17" height="24" viewBox="0 0 17 24" fill="none" xmlns="http://www.w3.org/2000/svg">
<path d="M13.4357 11.9998C15.248 10.813 16.4137 8.75607 16.4137 6.52791C16.4137 2.92847 13.4853 0.00012207 9.88589 0.00012207H0V2.11059H0.809278C3.24505 2.11059 5.22659 4.09214 5.22659 6.52791C5.22659 8.96367 3.24505 10.9452 0.809278 10.9452H0V13.055H0.809278C3.24505 13.055 5.22659 15.0372 5.22659 17.4723C5.22659 19.9081 3.24505 21.8897 0.809278 21.8897H0V24.0001H9.88589C13.4853 24.0001 16.4137 21.0718 16.4137 17.4723C16.4137 15.2442 15.248 13.1873 13.4357 11.9998ZM6.84515 6.52791C6.84515 4.50669 5.84677 2.71425 4.31681 1.61868H9.88589C12.5927 1.61868 14.7951 3.82105 14.7951 6.52791C14.7951 8.63507 13.408 10.5353 11.4112 11.1912H4.63153C5.98033 10.083 6.84515 8.40564 6.84515 6.52791ZM9.88589 22.3816H4.31681C5.84677 21.2853 6.84515 19.4936 6.84515 17.4723C6.84515 15.5946 5.98033 13.9172 4.63153 12.8091H11.4112C13.408 13.465 14.7951 15.3652 14.7951 17.4723C14.7951 20.1792 12.5927 22.3816 9.88589 22.3816Z" fill="white"/>
</svg>
