<svg width="21" height="20" viewBox="0 0 21 20" fill="none" xmlns="http://www.w3.org/2000/svg">
<mask id="path-1-inside-1_238_278" fill="white">
<path fill-rule="evenodd" clip-rule="evenodd" d="M10.4999 2.25003L10.5 2.25011L10.5001 2.25003C12.8013 -0.0971784 16.5322 -0.0971784 18.8334 2.25003C21.1346 4.59724 21.1346 8.40281 18.8334 10.75C18.8212 10.7625 18.8089 10.7749 18.7967 10.7872L10.4997 19.25L2.1664 10.75L2.16649 10.7499C-0.134617 8.40272 -0.13459 4.59721 2.16657 2.25003C4.46776 -0.0971784 8.19873 -0.0971784 10.4999 2.25003Z"/>
</mask>
<path d="M10.5 2.25011L9.07606 3.65453L10.5089 5.10724L11.9326 3.64566L10.5 2.25011ZM10.4999 2.25003L9.07176 3.65018L9.07598 3.65446L10.4999 2.25003ZM10.5001 2.25003L9.07192 0.849877L9.06744 0.854472L10.5001 2.25003ZM18.8334 2.25003L20.2616 0.849885L18.8334 2.25003ZM18.8334 10.75L20.2615 12.1502L20.2616 12.1502L18.8334 10.75ZM18.7967 10.7872L17.3806 9.37479L17.3745 9.38089L17.3685 9.38705L18.7967 10.7872ZM10.4997 19.25L9.0716 20.6502L10.4997 22.1069L11.9279 20.6502L10.4997 19.25ZM2.1664 10.75L0.741584 9.3465L-0.637692 10.7467L0.738261 12.1502L2.1664 10.75ZM2.16649 10.7499L3.59131 12.1535L4.97056 10.7533L3.59466 9.34982L2.16649 10.7499ZM2.16657 2.25003L0.738428 0.849885L0.738428 0.849885L2.16657 2.25003ZM11.9239 0.84568L11.9238 0.845602L9.07598 3.65446L9.07606 3.65453L11.9239 0.84568ZM9.06744 0.854472L9.06736 0.85455L11.9326 3.64566L11.9327 3.64559L9.06744 0.854472ZM20.2616 0.849885C17.1762 -2.29713 12.1572 -2.29713 9.07192 0.849885L11.9282 3.65017C13.4453 2.10277 15.8882 2.10277 17.4053 3.65017L20.2616 0.849885ZM20.2616 12.1502C23.3252 9.02523 23.3252 3.97481 20.2616 0.849885L17.4053 3.65017C18.944 5.21966 18.944 7.78039 17.4053 9.34987L20.2616 12.1502ZM20.2127 12.1996C20.229 12.1832 20.2453 12.1667 20.2615 12.1502L17.4053 9.34987C17.3971 9.35825 17.3888 9.36656 17.3806 9.37479L20.2127 12.1996ZM17.3685 9.38705L9.0716 17.8499L11.9279 20.6502L20.2248 12.1873L17.3685 9.38705ZM11.9279 17.8499L3.59455 9.34988L0.738261 12.1502L9.0716 20.6502L11.9279 17.8499ZM3.59123 12.1536L3.59131 12.1535L0.74167 9.34641L0.741584 9.3465L3.59123 12.1536ZM0.738428 0.849885C-2.3252 3.97478 -2.32524 9.02512 0.738321 12.1501L3.59466 9.34982C2.056 7.78033 2.05602 5.21964 3.59472 3.65017L0.738428 0.849885ZM11.9281 0.849885C8.84274 -2.29713 3.82374 -2.29713 0.738428 0.849885L3.59472 3.65017C5.11178 2.10277 7.55471 2.10277 9.07177 3.65017L11.9281 0.849885Z" fill="black" mask="url(#path-1-inside-1_238_278)"/>
</svg>
