<svg width="206" height="300" viewBox="0 0 206 300" fill="none" xmlns="http://www.w3.org/2000/svg">
<path d="M167.883 149.734C190.501 134.921 205.04 109.254 205.04 81.4493C205.04 36.5377 168.503 0 123.591 0H0.237061V26.333H10.3341C40.7261 26.333 65.4526 51.0595 65.4526 81.4493C65.4526 111.844 40.7261 136.568 10.3341 136.568H0.237061V162.901H10.3341C40.7261 162.901 65.4526 187.625 65.4526 218.017C65.4526 248.407 40.7261 273.133 10.3341 273.133H0.237061V299.464H123.591C168.503 299.464 205.04 262.929 205.04 218.017C205.04 190.214 190.501 164.545 167.883 149.734ZM85.6466 81.4493C85.6466 56.2314 73.1891 33.8699 54.1013 20.194H123.591C157.367 20.194 184.846 47.6736 184.846 81.4493C184.846 107.742 167.54 131.454 142.625 139.637H58.0301C74.863 125.813 85.6466 104.881 85.6466 81.4493ZM123.591 279.27H54.1035C73.1891 265.594 85.6466 243.233 85.6466 218.017C85.6466 194.585 74.863 173.653 58.0301 159.831H142.625C167.54 168.012 184.846 191.724 184.846 218.017C184.846 251.793 157.367 279.27 123.591 279.27Z" fill="white"/>
</svg>
